<?xml version="1.0"?>
<svg xmlns="http://www.w3.org/2000/svg" xmlns:xlink="http://www.w3.org/1999/xlink" xmlns:svgjs="http://svgjs.com/svgjs" version="1.1" width="512" height="512" x="0" y="0" viewBox="0 0 480 480" style="enable-background:new 0 0 512 512" xml:space="preserve" class=""><g>
<g xmlns="http://www.w3.org/2000/svg">
	<g>
		<path d="M472,335.975h-24v-96c0-17.673-14.327-32-32-32h-32v-80c0-17.673-14.327-32-32-32h-95.856l42.256-32.8    c15.382-11.975,18.144-34.151,6.17-49.533c-11.974-15.382-34.151-18.144-49.533-6.17c-3.63,2.826-6.672,6.334-8.956,10.327    l-3.912,6.848l-3.912-6.848C228.565,0.885,206.998-4.971,190.084,4.72c-16.914,9.691-22.769,31.258-13.078,48.172    c2.276,3.973,5.304,7.465,8.915,10.282l42.224,32.8H128c-17.673,0-32,14.327-32,32v80H64c-17.673,0-32,14.327-32,32v96H8    c-4.418,0-8,3.582-8,8c0.026,22.08,17.92,39.974,40,40h176v48h-32c-22.08,0.026-39.974,17.92-40,40c0,4.418,3.582,8,8,8h176    c4.418,0,8-3.582,8-8c-0.026-22.08-17.92-39.974-40-40h-32v-48h176c22.08-0.026,39.974-17.92,40-40    C480,339.556,476.418,335.975,472,335.975z M195.752,50.503c-8.196-6.339-9.907-18.026-3.872-26.448    c3.569-5.099,9.416-8.12,15.64-8.08c0.344,0,0.696,0,1.04,0c6.59,0.267,12.567,3.939,15.784,9.696L235.2,44.695    c2.194,3.835,7.081,5.165,10.917,2.971c1.238-0.708,2.263-1.734,2.971-2.971l10.864-19c5.283-9.25,17.064-12.466,26.315-7.183    c2.421,1.383,4.514,3.274,6.133,5.543c6.04,8.416,4.34,20.102-3.848,26.448l-46.4,36.096L195.752,50.503z M112,143.975h8v-16h-8    c0-8.837,7.163-16,16-16h224c8.837,0,16,7.163,16,16h-8v16h8v21.24c-10.53-3.732-19.424-11.027-25.144-20.624    c-2.277-3.786-7.192-5.01-10.979-2.733c-1.121,0.674-2.06,1.613-2.734,2.733c-13.533,22.723-42.924,30.173-65.648,16.64    c-6.844-4.076-12.564-9.796-16.64-16.64c-2.277-3.786-7.192-5.01-10.979-2.733c-1.121,0.674-2.059,1.613-2.733,2.733    c-13.533,22.723-42.924,30.173-65.648,16.64c-6.845-4.076-12.564-9.796-16.64-16.64c-2.595-3.786-7.769-4.752-11.555-2.157    c-0.846,0.58-1.577,1.311-2.157,2.157c-5.72,9.597-14.614,16.892-25.144,20.624V143.975z M112,181.879    c12.401-3.17,23.555-10.013,32-19.632c23.292,26.51,63.665,29.118,90.175,5.825c2.065-1.814,4.011-3.76,5.825-5.825    c23.292,26.51,63.665,29.118,90.175,5.825c2.065-1.814,4.011-3.76,5.825-5.825c8.445,9.619,19.599,16.462,32,19.632v26.096H112    V181.879z M48,255.975h16v-16H48c0-8.837,7.163-16,16-16h352c8.837,0,16,7.163,16,16h-16v16h16v24    c-16.889,0.047-32.542-8.849-41.144-23.384c-2.277-3.786-7.192-5.01-10.979-2.733c-1.121,0.674-2.06,1.613-2.734,2.733    c-13.533,22.723-42.924,30.173-65.648,16.64c-6.844-4.076-12.564-9.796-16.64-16.64c-2.595-3.786-7.769-4.752-11.555-2.157    c-0.846,0.58-1.577,1.311-2.157,2.157c-13.533,22.723-42.924,30.173-65.648,16.64c-6.845-4.076-12.564-9.796-16.64-16.64    c-2.595-3.786-7.769-4.752-11.555-2.157c-0.846,0.58-1.577,1.311-2.157,2.157c-13.533,22.723-42.924,30.173-65.648,16.64    c-6.845-4.076-12.564-9.796-16.64-16.64c-2.595-3.786-7.769-4.752-11.555-2.157c-0.846,0.58-1.577,1.311-2.157,2.157    C80.542,271.125,64.889,280.021,48,279.975V255.975z M48,295.975c18.395,0.072,35.912-7.855,48-21.72    c23.292,26.51,63.665,29.118,90.175,5.825c2.065-1.814,4.011-3.76,5.825-5.825c23.292,26.51,63.665,29.118,90.175,5.825    c2.065-1.814,4.011-3.76,5.825-5.825c23.292,26.51,63.665,29.118,90.175,5.825c2.065-1.814,4.011-3.76,5.825-5.825    c12.088,13.865,29.606,21.792,48,21.72v40H48V295.975z M296,447.975c10.168,0.012,19.229,6.418,22.632,16H161.368    c3.403-9.582,12.464-15.988,22.632-16H296z M232,431.975v-48h16v48H232z M440,367.975H40c-10.168-0.012-19.229-6.418-22.632-16    h445.264C459.229,361.556,450.168,367.962,440,367.975z" fill="#fff" data-original="#000000" style=""/>
	</g>
</g>
<g xmlns="http://www.w3.org/2000/svg">
	<g>
		<rect x="184" y="127.975" width="16" height="16" fill="#fff" data-original="#000000" style=""/>
	</g>
</g>
<g xmlns="http://www.w3.org/2000/svg">
	<g>
		<rect x="280" y="127.975" width="16" height="16" fill="#fff" data-original="#000000" style=""/>
	</g>
</g>
<g xmlns="http://www.w3.org/2000/svg">
	<g>
		<rect x="136" y="239.975" width="16" height="16" fill="#fff" data-original="#000000" style=""/>
	</g>
</g>
<g xmlns="http://www.w3.org/2000/svg">
	<g>
		<rect x="232" y="239.975" width="16" height="16" fill="#fff" data-original="#000000" style=""/>
	</g>
</g>
<g xmlns="http://www.w3.org/2000/svg">
	<g>
		<rect x="328" y="239.975" width="16" height="16" fill="#fff" data-original="#000000" style=""/>
	</g>
</g>
<g xmlns="http://www.w3.org/2000/svg">
</g>
<g xmlns="http://www.w3.org/2000/svg">
</g>
<g xmlns="http://www.w3.org/2000/svg">
</g>
<g xmlns="http://www.w3.org/2000/svg">
</g>
<g xmlns="http://www.w3.org/2000/svg">
</g>
<g xmlns="http://www.w3.org/2000/svg">
</g>
<g xmlns="http://www.w3.org/2000/svg">
</g>
<g xmlns="http://www.w3.org/2000/svg">
</g>
<g xmlns="http://www.w3.org/2000/svg">
</g>
<g xmlns="http://www.w3.org/2000/svg">
</g>
<g xmlns="http://www.w3.org/2000/svg">
</g>
<g xmlns="http://www.w3.org/2000/svg">
</g>
<g xmlns="http://www.w3.org/2000/svg">
</g>
<g xmlns="http://www.w3.org/2000/svg">
</g>
<g xmlns="http://www.w3.org/2000/svg">
</g>
</g></svg>
