<?xml version="1.0"?>
<svg xmlns="http://www.w3.org/2000/svg" xmlns:xlink="http://www.w3.org/1999/xlink" xmlns:svgjs="http://svgjs.com/svgjs" version="1.1" width="512" height="512" x="0" y="0" viewBox="0 0 410.901 410.901" style="enable-background:new 0 0 512 512" xml:space="preserve" class=""><g>
<g xmlns="http://www.w3.org/2000/svg">
	<g>
		<path d="M389.451,354.101h-12v-0.8v-156c16.8-4.8,28.8-20,28.8-38.4c0-22.4-18.4-40.8-40.8-40.8h-129.6c4-5.6,6.4-12.8,6.4-20.8    c0-17.6-12-32-28.8-36c0.8-11.2,6.4-33.6,37.6-45.6c4-1.6,6.4-6.4,4.8-10.4c-1.6-4-6.4-6.4-10.4-4.8c-36,13.6-47.2,42.4-48,60.8    c-16,4-28.8,18.4-28.8,36c0,8,2.4,14.4,6.4,20.8h-129.6c-22.4,0-40.8,18.4-40.8,40.8c0,18.4,12,33.6,28.8,38.4v156v0.8h-11.2    c-9.6,0-16.8,8-16.8,16.8v23.2c0,9.6,8,16.8,16.8,16.8h367.2c9.6,0,16.8-8,16.8-16.8v-23.2    C406.251,361.301,398.251,354.101,389.451,354.101z M205.451,76.501c11.2,0,20.8,9.6,20.8,20.8c0,11.2-9.6,20.8-20.8,20.8    s-20.8-9.6-20.8-20.8C184.651,86.101,194.251,76.501,205.451,76.501z M20.651,158.901c0-13.6,11.2-24.8,24.8-24.8h320    c13.6,0,24.8,11.2,24.8,24.8c0,13.6-11.2,24.8-24.8,24.8c-8.8,0-16.8-4.8-21.6-12.8c-1.6-2.4-4-4-6.4-4c-2.4,0-5.6,0.8-7.2,3.2    c-4,5.6-9.6,8.8-16,8.8c-4.8,0-9.6-1.6-13.6-5.6c-2.4-1.6-4.8-2.4-8-1.6l-1.6,0.8c-4,1.6-6.4,5.6-5.6,9.6c0.8,1.6,0.8,4,0.8,4.8    c0,10.4-8.8,19.2-19.2,19.2s-19.2-8.8-19.2-19.2c0-3.2-1.6-6.4-4.8-8c-0.8-0.8-2.4-0.8-3.2-0.8c-2.4,0-4,0.8-5.6,2.4    c-7.2,7.2-19.2,8-27.2,0.8c-1.6-1.6-4.8-2.4-7.2-1.6c-2.4,0.8-4.8,2.4-5.6,4.8c-3.2,7.2-10.4,12-17.6,12c-5.6,0-11.2-2.4-15.2-7.2    c-1.6-2.4-4-3.2-7.2-3.2c-2.4,0-4.8,1.6-6.4,4c-3.2,6.4-9.6,11.2-17.6,11.2c-10.4,0-19.2-8-19.2-18.4c0-3.2-1.6-5.6-4-6.4    c-2.4-1.6-5.6-1.6-8,0c-8,4.8-16.8,3.2-23.2-2.4c-1.6-1.6-4-2.4-6.4-2.4c-2.4,0-4,1.6-5.6,3.2c-4.8,6.4-12,9.6-19.2,9.6    C31.851,182.901,20.651,172.501,20.651,158.901z M337.451,293.301c-12-4.8-28-9.6-49.6,0.8c-13.6,5.6-23.2,2.4-34.4-1.6    c-13.6-4.8-29.6-9.6-51.2,1.6c-13.6,5.6-23.2,2.4-33.6-1.6c-13.6-4.8-29.6-9.6-51.2,1.6c-13.6,5.6-23.2,2.4-33.6-1.6    c-9.6-3.2-20-6.4-33.6-4.8v-32c11.2-3.2,19.2,0,28.8,3.2c7.2,2.4,15.2,5.6,24.8,5.6c5.6,0,12-0.8,19.2-4c16-8.8,27.2-4.8,40-0.8    c7.2,2.4,16,4.8,24.8,4.8c6.4,0,12.8-0.8,20-4c16-8.8,27.2-4.8,40-0.8c7.2,2.4,16,4.8,24.8,4.8c6.4,0,12.8-0.8,20-4    c16-8.8,27.2-4.8,40-0.8c7.2,2.4,16,4.8,24.8,4.8c0.8,0,1.6,0,1.6,0v32.8C351.851,298.101,344.651,295.701,337.451,293.301z     M359.051,313.301v40c0,0.8-0.8,0.8-0.8,0.8h-307.2c-0.8,0-0.8-0.8-0.8-0.8v-48c10.4-2.4,18.4,0,28,3.2c7.2,2.4,16,4.8,24.8,4.8    c6.4,0,12.8-0.8,20-4c16-8.8,27.2-4.8,40-0.8c7.2,2.4,16,4.8,24.8,4.8c6.4,0,12.8-0.8,20-4c16-8.8,27.2-4.8,40-0.8    c7.2,2.4,16,4.8,24.8,4.8c6.4,0,12.8-0.8,20-4c16-8.8,27.2-4.8,40-0.8c7.2,2.4,16,4.8,24.8,4.8    C358.251,313.301,359.051,313.301,359.051,313.301z M339.051,244.501c-13.6-4.8-29.6-9.6-51.2,1.6c-13.6,5.6-23.2,2.4-33.6-1.6    c-13.6-4.8-29.6-9.6-51.2,1.6c-13.6,5.6-23.2,2.4-33.6-1.6c-13.6-4.8-29.6-9.6-51.2,1.6c-12.8,5.6-22.4,2.4-33.6-1.6    c-9.6-3.2-20.8-7.2-34.4-4.8v-40.8c8-0.8,15.2-4,21.6-9.6c8,4.8,16.8,6.4,25.6,4c4.8,13.6,17.6,23.2,33.6,23.2    c10.4,0,19.2-4,25.6-11.2c5.6,4,12.8,6.4,20,6.4c11.2,0,20.8-4.8,27.2-12.8c9.6,4.8,20.8,4.8,30.4,0.8    c5.6,12.8,18.4,22.4,32.8,22.4c17.6,0,32-12.8,35.2-29.6c11.2,4,24,1.6,33.6-5.6c6.4,7.2,15.2,11.2,24.8,12v49.6    C352.651,249.301,346.251,246.901,339.051,244.501z M390.251,394.901c0,0.8-0.8,0.8-0.8,0.8h-367.2c-0.8,0-0.8-0.8-0.8-0.8v-23.2    c0-0.8,0.8-0.8,0.8-0.8h28.8h308.8h28.8c0.8-0.8,1.6,0,1.6,0.8V394.901z" fill="#ffffff" data-original="#000000" style=""/>
	</g>
</g>
<g xmlns="http://www.w3.org/2000/svg">
</g>
<g xmlns="http://www.w3.org/2000/svg">
</g>
<g xmlns="http://www.w3.org/2000/svg">
</g>
<g xmlns="http://www.w3.org/2000/svg">
</g>
<g xmlns="http://www.w3.org/2000/svg">
</g>
<g xmlns="http://www.w3.org/2000/svg">
</g>
<g xmlns="http://www.w3.org/2000/svg">
</g>
<g xmlns="http://www.w3.org/2000/svg">
</g>
<g xmlns="http://www.w3.org/2000/svg">
</g>
<g xmlns="http://www.w3.org/2000/svg">
</g>
<g xmlns="http://www.w3.org/2000/svg">
</g>
<g xmlns="http://www.w3.org/2000/svg">
</g>
<g xmlns="http://www.w3.org/2000/svg">
</g>
<g xmlns="http://www.w3.org/2000/svg">
</g>
<g xmlns="http://www.w3.org/2000/svg">
</g>
</g></svg>
