<?xml version="1.0"?>
<svg xmlns="http://www.w3.org/2000/svg" xmlns:xlink="http://www.w3.org/1999/xlink" xmlns:svgjs="http://svgjs.com/svgjs" version="1.1" width="512" height="512" x="0" y="0" viewBox="0 0 507.628 507.628" style="enable-background:new 0 0 512 512" xml:space="preserve" class=""><g><g xmlns="http://www.w3.org/2000/svg"><path d="m172.235 395.058c-16.882 0-30.617 13.734-30.617 30.617 0 16.882 13.734 30.616 30.617 30.616 16.882 0 30.616-13.734 30.616-30.616 0-16.883-13.734-30.617-30.616-30.617zm0 46.233c-8.611 0-15.617-7.005-15.617-15.616s7.006-15.617 15.617-15.617 15.616 7.006 15.616 15.617c0 8.61-7.005 15.616-15.616 15.616z" fill="#fff" data-original="#000000" style="" class=""/><path d="m452.424 452.245h-10.854v-228.468c0-4.142-3.358-7.5-7.5-7.5s-7.5 3.358-7.5 7.5v33.292h-187.955v-171.297c0-4.005 3.258-7.263 7.263-7.263h50.252v50.424c0 4.142 3.358 7.5 7.5 7.5h57.924c4.142 0 7.5-3.358 7.5-7.5v-50.424h50.252c4.005 0 7.263 3.258 7.263 7.263v108.005c0 4.142 3.358 7.5 7.5 7.5s7.5-3.358 7.5-7.5v-108.005c0-12.276-9.987-22.263-22.263-22.263h-173.428c-12.276 0-22.263 9.987-22.263 22.263v276.121c-7.222-5.829-15.448-10.453-24.376-13.579v-302.916c0-14.618-11.893-26.511-26.511-26.511h-.493-19.504-16.114v-11.387c0-4.142-3.358-7.5-7.5-7.5h-73.898c-14.899 0-27.02 12.121-27.02 27.02 0 14.898 12.121 27.02 27.02 27.02h73.897c4.142 0 7.5-3.358 7.5-7.5v-12.653h8.614v225.275c0 4.142 3.358 7.5 7.5 7.5s7.5-3.358 7.5-7.5v-225.275h12.004.493c6.347 0 11.511 5.164 11.511 11.511v299.211c-3.92-.578-7.926-.888-12.004-.888s-8.084.31-12.004.888v-55.447c0-4.142-3.358-7.5-7.5-7.5s-7.5 3.358-7.5 7.5v59.152c-31.958 11.189-54.949 41.632-54.949 77.36 0 45.189 36.764 81.953 81.953 81.953 5.074 0 10.033-.487 14.854-1.374h265.334c14.89 0 27.004-12.114 27.004-27.004.002-14.89-12.112-27.004-27.002-27.004zm-98.37-330.812h-42.924v-42.924h42.924zm-232.438-82.394h-66.397c-6.628 0-12.02-5.392-12.02-12.02s5.392-12.02 12.02-12.02h66.397zm128.126 413.206c2.867-8.339 4.446-17.271 4.446-26.57 0-17.915-5.794-34.493-15.584-47.994.002-.079.012-.156.012-.235v-103.762h57.515v50.424c0 4.142 3.358 7.5 7.5 7.5h57.924c4.142 0 7.5-3.358 7.5-7.5v-50.424h57.515v178.561zm61.388-178.561h42.924v42.924h-42.924zm-205.848 151.99c0-36.918 30.035-66.953 66.953-66.953s66.953 30.035 66.953 66.953-30.035 66.953-66.953 66.953-66.953-30.035-66.953-66.953zm347.142 65.579h-231.095c8.65-6.492 15.966-14.661 21.492-24.009h209.603c6.619 0 12.004 5.385 12.004 12.004 0 6.62-5.385 12.005-12.004 12.005z" fill="#fff" data-original="#000000" style="" class=""/></g></g></svg>
