<?xml version="1.0"?>
<svg xmlns="http://www.w3.org/2000/svg" xmlns:xlink="http://www.w3.org/1999/xlink" xmlns:svgjs="http://svgjs.com/svgjs" version="1.1" width="512" height="512" x="0" y="0" viewBox="0 0 512 512" style="enable-background:new 0 0 512 512" xml:space="preserve"><g><path xmlns="http://www.w3.org/2000/svg" d="m127.148438 421.871094c0 4.144531 3.359374 7.5 7.5 7.5h118.054687c4.144531 0 7.5-3.355469 7.5-7.5 0-4.144532-3.355469-7.5-7.5-7.5h-118.054687c-4.140626 0-7.5 3.355468-7.5 7.5zm257.476562 49.144531-5.582031-11.9375c-3.003907-6.425781-5.394531-13.054687-7.175781-19.839844-.035157-.152343-.074219-.300781-.117188-.453125-1.960938-7.585937-3.15625-15.367187-3.558594-23.289062l-13.65625-268.414063c-1-19.648437-17.195312-35.039062-36.867187-35.039062h-31.324219v-19.375c0-51.097657-41.570312-92.667969-92.667969-92.667969-51.09375 0-92.667969 41.570312-92.667969 92.667969v19.375h-31.320312c-19.675781 0-35.867188 15.390625-36.867188 35.039062l-.996093 19.574219c-.210938 4.136719 2.972656 7.660156 7.109375 7.871094 4.136718.222656 7.660156-2.972656 7.871094-7.109375l.996093-19.574219c.59375-11.664062 10.207031-20.800781 21.886719-20.800781h31.324219v23.003906c-13.1875 3.351563-22.972657 15.320313-22.972657 29.539063 0 16.800781 13.667969 30.46875 30.472657 30.46875 16.800781 0 30.472656-13.667969 30.472656-30.46875 0-14.21875-9.785156-26.1875-22.972656-29.539063v-23.003906h155.332031v23.003906c-13.1875 3.351563-22.972656 15.320313-22.972656 29.539063 0 16.800781 13.671875 30.46875 30.472656 30.46875 16.804688 0 30.472656-13.667969 30.472656-30.46875 0-14.21875-9.785156-26.1875-22.972656-29.539063v-23.003906h31.324219c11.679687 0 21.292969 9.136719 21.886719 20.800781l13.65625 268.417969c.320312 6.257812 1.078124 12.4375 2.257812 18.523437-47.773438 7.117188-114.621094 10.324219-161.792969 10.324219-47.167969 0-114.015625-3.207031-161.789062-10.324219 1.179687-6.085937 1.9375-12.265625 2.257812-18.523437l10.886719-213.988281c.210938-4.136719-2.972656-7.660157-7.109375-7.871094-4.132813-.21875-7.660156 2.972656-7.871094 7.109375l-10.886719 213.984375c-.40625 7.925781-1.601562 15.707031-3.5625 23.300781-.042968.140625-.078124.285156-.113281.433594-1.78125 6.785156-4.171875 13.417969-7.179687 19.847656l-5.582032 11.9375c-4.191406 8.964844-3.519531 19.304687 1.792969 27.652344 5.3125 8.347656 14.390625 13.332031 24.289063 13.332031h305.953125c4.144531 0 7.5-3.355469 7.5-7.5s-3.355469-7.5-7.5-7.5h-305.953125c-4.8125 0-9.050782-2.328125-11.636719-6.386719-2.582031-4.058593-2.894531-8.886719-.855469-13.242187l5.582032-11.9375c2.445312-5.238282 4.527343-10.589844 6.257812-16.042969 48.679688 7.390625 117.304688 10.71875 165.519531 10.71875 48.214844 0 116.839844-3.328125 165.519531-10.71875 1.730469 5.453125 3.8125 10.804687 6.257813 16.042969l5.582031 11.9375c3.328125 7.117187.023438 14.152344-4.964844 17.421875-3.464843 2.269531-4.4375 6.917969-2.164062 10.382812 1.4375 2.195313 3.835938 3.390625 6.277344 3.390625 1.410156 0 2.835937-.394531 4.105468-1.226562 12.117188-7.9375 16.464844-23.214844 10.335938-36.324219zm-260.644531-291.429687c0 8.527343-6.941407 15.46875-15.472657 15.46875-8.527343 0-15.46875-6.9375-15.46875-15.46875 0-5.8125 3.222657-10.878907 7.96875-13.523438v13.523438c0 4.140624 3.359376 7.5 7.5 7.5 4.144532 0 7.5-3.359376 7.5-7.5v-13.523438c4.75 2.644531 7.972657 7.710938 7.972657 13.523438zm-7.972657-67.542969v-19.375c0-42.828125 34.84375-77.667969 77.667969-77.667969 42.828125 0 77.667969 34.839844 77.667969 77.667969v19.375zm178.308594 67.542969c0 8.527343-6.941406 15.46875-15.472656 15.46875s-15.472656-6.9375-15.472656-15.46875c0-5.8125 3.222656-10.878907 7.972656-13.523438v13.523438c0 4.140624 3.355469 7.5 7.5 7.5 4.140625 0 7.5-3.359376 7.5-7.5v-13.523438c4.746094 2.644531 7.972656 7.710938 7.972656 13.523438zm-36.722656 121.558593c-.019531-7.988281-4.832031-15.050781-12.257812-17.992187l-84.328126-33.40625c-8.59375-3.402344-17.992187-1.457032-24.527343 5.078125-6.539063 6.539062-8.484375 15.9375-5.078125 24.527343l33.40625 84.328126c2.941406 7.429687 10.003906 12.238281 17.988281 12.257812h.050781c7.96875 0 15.03125-4.773438 18.003906-12.167969l9.734376-24.230469 32.675781 32.675782c1.464843 1.464844 3.386719 2.195312 5.304687 2.195312 1.917969 0 3.839844-.730468 5.304688-2.195312 2.929687-2.929688 2.929687-7.675782 0-10.605469l-32.675782-32.675781 24.230469-9.738282c7.410157-2.976562 12.1875-10.0625 12.167969-18.050781zm-17.761719 4.132813-34.753906 13.964844c-.917969.367187-1.777344.917968-2.519531 1.660156-.742188.746094-1.296875 1.609375-1.664063 2.527344l-13.960937 34.746093c-1 2.488281-3.183594 2.761719-4.085938 2.761719h-.011718c-.898438 0-3.089844-.277344-4.082032-2.78125l-33.40625-84.328125c-1.753906-4.425781.886719-7.546875 1.738282-8.394531.644531-.648438 2.601562-2.328125 5.449218-2.328125.898438 0 1.886719.167969 2.949219.585937l84.328125 33.40625c2.503906.992188 2.777344 3.1875 2.78125 4.082032.003906.898437-.261719 3.09375-2.761719 4.097656zm0 0" fill="#8d503c" data-original="#000000" style=""/></g></svg>
