<?xml version="1.0"?>
<svg xmlns="http://www.w3.org/2000/svg" xmlns:xlink="http://www.w3.org/1999/xlink" xmlns:svgjs="http://svgjs.com/svgjs" version="1.1" width="512" height="512" x="0" y="0" viewBox="0 0 512 512" style="enable-background:new 0 0 512 512" xml:space="preserve" class=""><g><g xmlns="http://www.w3.org/2000/svg"><g><path d="m437.019 74.981c-48.352-48.352-112.639-74.981-181.019-74.981s-132.667 26.629-181.019 74.981-74.981 112.639-74.981 181.019 26.629 132.667 74.981 181.019 112.639 74.981 181.019 74.981c25.13 0 49.965-3.635 73.812-10.803 3.968-1.193 6.217-5.376 5.025-9.344-1.193-3.968-5.375-6.217-9.344-5.025-22.445 6.747-45.826 10.168-69.492 10.168-64.373 0-124.892-25.068-170.41-70.586s-70.587-106.038-70.587-170.41 25.068-124.892 70.586-170.41 106.037-70.586 170.41-70.586 124.892 25.068 170.41 70.586 70.586 106.038 70.586 170.41c0 46.882-13.469 92.326-38.952 131.421-24.837 38.104-59.724 68.32-100.889 87.384-3.76 1.741-5.396 6.2-3.655 9.96 1.741 3.759 6.202 5.395 9.96 3.655 43.724-20.249 80.776-52.34 107.153-92.806 27.076-41.538 41.387-89.816 41.387-139.614 0-68.38-26.629-132.667-74.981-181.019z" fill="#8d503c" data-original="#000000" style=""/><path d="m97.788 107.643c-37.838 40.335-58.676 93.022-58.676 148.355 0 57.932 22.56 112.397 63.525 153.361 40.963 40.964 95.428 63.524 153.361 63.524s112.397-22.56 153.361-63.524 63.525-95.429 63.525-153.361-22.56-112.397-63.525-153.361c-40.963-40.964-95.428-63.524-153.361-63.524-48.036 0-93.545 15.381-131.608 44.482-3.292 2.516-3.92 7.225-1.404 10.516s7.223 3.92 10.515 1.404c35.425-27.083 77.783-41.398 122.497-41.398 111.318 0 201.882 90.564 201.882 201.882s-90.564 201.881-201.882 201.881-201.882-90.564-201.882-201.882c0-51.505 19.396-100.546 54.614-138.089 2.835-3.022 2.683-7.77-.339-10.604-3.021-2.836-7.77-2.682-10.603.338z" fill="#8d503c" data-original="#000000" style=""/><path d="m256 111.858c4.144 0 7.502-3.359 7.502-7.502v-25.878c0-4.143-3.358-7.502-7.502-7.502s-7.502 3.359-7.502 7.502v25.879c0 4.143 3.358 7.501 7.502 7.501z" fill="#8d503c" data-original="#000000" style=""/><path d="m248.498 407.644v25.879c0 4.143 3.358 7.502 7.502 7.502s7.502-3.359 7.502-7.502v-25.879c0-4.143-3.358-7.502-7.502-7.502s-7.502 3.358-7.502 7.502z" fill="#8d503c" data-original="#000000" style=""/><path d="m78.478 248.498c-4.144 0-7.502 3.359-7.502 7.502s3.358 7.502 7.502 7.502h25.879c4.144 0 7.502-3.359 7.502-7.502s-3.358-7.502-7.502-7.502z" fill="#8d503c" data-original="#000000" style=""/><path d="m433.522 263.502c4.144 0 7.502-3.359 7.502-7.502s-3.358-7.502-7.502-7.502h-25.879c-4.144 0-7.502 3.359-7.502 7.502s3.358 7.502 7.502 7.502z" fill="#8d503c" data-original="#000000" style=""/><path d="m248.498 229.3c-11.66 3.281-20.236 14.004-20.236 26.7 0 15.295 12.443 27.739 27.738 27.739 12.695 0 23.418-8.576 26.699-20.237h45.023c4.144 0 7.502-3.359 7.502-7.502s-3.358-7.502-7.502-7.502h-45.023c-2.609-9.273-9.925-16.588-19.197-19.198v-81.135c0-4.143-3.358-7.502-7.502-7.502s-7.502 3.359-7.502 7.502zm7.502 13.965c7.022 0 12.735 5.713 12.735 12.735s-5.712 12.735-12.735 12.735-12.735-5.713-12.735-12.735 5.713-12.735 12.735-12.735z" fill="#8d503c" data-original="#000000" style=""/></g></g></g></svg>
